<svg height="44" viewBox="0 0 144 44" width="144" xmlns="http://www.w3.org/2000/svg"><g fill="none" fill-rule="evenodd"><rect fill="#000" height="44.274809" rx="4.427481" width="143.89313"/><g fill="#fff" fill-rule="nonzero"><g transform="translate(10.961832 8.854962)"><path d="m16.4573359 13.6152565c.0241928-1.8777731 1.0086276-3.6122642 2.6084061-4.59579161-1.0138128-1.44790496-2.6510073-2.33299648-4.4176962-2.38827176-1.8587008-.19509695-3.6606302 1.11221641-4.6077901 1.11221641-.96548967 0-2.4237912-1.09284618-3.9941412-1.06053664-2.06617112.06675359-3.9457077 1.21301408-4.95094198 3.01939809-2.14068702 3.70626641-.5439271 9.15323011 1.50667175 12.14909621 1.02595802 1.4669904 2.2250084 3.1056565 3.79394161 3.0475458 1.53529542-.0636783 2.10869847-.9790046 3.96193132-.9790046 1.836032 0 2.3740042.9790046 3.974771.9420572 1.6474435-.0267419 2.685411-1.4735099 3.6753736-2.9543916.7371336-1.0452871 1.3043537-2.2005537 1.6806497-3.4230072-1.9566453-.8275859-3.2288994-2.7448448-3.2311756-4.8693103z"/><path d="m13.433776 4.66090878c.8982546-1.07832194 1.3407906-2.46432209 1.233629-3.86366336-1.3723334.14413718-2.6399849.8000233-3.5503748 1.8369729-.8989683 1.02309014-1.35438347 2.36156594-1.2659386 3.72062252 1.3907347.01431932 2.7112079-.61001476 3.5826844-1.69393206z"/></g><g transform="translate(36.526717 8.854962)"><path d="m2.93905038 7.41786794v-5.67108283h-2.07759542v-.93339045h5.17656641v.93337939h-2.07321221v5.67109389z"/><path d="m10.8082115 6.07211298c-.2758243.94015286-1.18562531 1.54759611-2.15969203 1.44195305-.66460704.01754462-1.3033314-.25793415-1.74670327-.7533448-.44337187-.49541064-.64656803-1.16066901-.55567536-1.81926512-.08847503-.66042467.11396139-1.32674587.5548639-1.82633925s1.07688642-.78329908 1.74318686-.77761724c1.3868309 0 2.2234699.94748091 2.2234699 2.51259542v.34319618h-3.51950425v.05512214c-.03114509.36984977.09516951.73567881.34787912 1.00751833.25270961.27183953.60836586.42446616.9795018.42034426.48123602.05777274.94968637-.1809367 1.18577901-.60424045zm-3.46007639-1.60625687h2.51750993c.02507382-.33825906-.09386431-.6713776-.32750417-.91726437s-.5602528-.38167416-.89935079-.37389976c-.34369779-.00432702-.67457654.13033339-.91757681.3734337-.24300028.2431003-.3775245.57403445-.37305602.91773043zm.70478855-2.86554313 1.14903092-1.57436794h1.15335882l-1.28631607 1.57436794z"/><path d="m12.2339489.48804122h.9836423v6.92982672h-.9836423z"/><path d="m19.0470229 6.07211298c-.2758243.94015286-1.1856253 1.54759611-2.159692 1.44195305-.664607.01754462-1.3033314-.25793415-1.7467033-.7533448-.4433718-.49541064-.646568-1.16066901-.5556753-1.81926512-.088475-.66042467.1139614-1.32674587.5548639-1.82633925s1.0768864-.78329908 1.7431869-.77761724c1.3868309 0 2.2234698.94748091 2.2234698 2.51259542v.34319618h-3.5195263v.05512214c-.0311451.36984977.0951695.73567881.3478791 1.00751833.2527096.27183953.6083658.42446616.9795018.42034426.481236.05777274.9496864-.1809367 1.185779-.60424045zm-3.4600763-1.60625687h2.5174767c.0250738-.33825906-.0938643-.6713776-.3275042-.91726437-.2336398-.24588677-.5602528-.38167416-.8993508-.37389976-.3436959-.00432401-.6745717.13033773-.9175696.3734377-.2429978.24309997-.3775206.5740324-.3730521.91772643zm.7047664-2.86554313 1.1490309-1.57436794h1.1533588l-1.2862718 1.57436794z"/><path d="m23.6907088 4.06266756c-.1295895-.53406293-.6296055-.89357815-1.1771344-.84636832-.8236664 0-1.3273809.63125916-1.3273809 1.693279 0 1.08038283.5080534 1.72569924 1.3273809 1.72569924.5428749.06289822 1.0475916-.28840731 1.1771344-.81933855h.9566236c-.1315629 1.04955048-1.0757832 1.80291336-2.1283454 1.69813817-.6745831.0212993-1.3241798-.25620507-1.7751556-.75833736-.4509758-.50213228-.6573542-1.17770057-.5639711-1.84612829-.0886825-.6634876.1196719-1.33232469.569474-1.82806495.4498022-.49574026 1.0952916-.7679497 1.7642512-.74400261 1.0610929-.09773644 2.0071053.66712449 2.1337469 1.72515687z"/><path d="m25.9530962.48804122h.9749977v2.74664313h.077824c.2678934-.58805961.8756452-.94511493 1.5197329-.8928458.488458-.02657896.9633294.16602358 1.2952698.52534701.3319403.35932344.4863761.84794205.4212424 1.33276711v3.21792634h-.9847271v-2.97526718c0-.79610534-.3708015-1.19929389-1.0657943-1.19929389-.3422122-.02806617-.6793647.09634305-.921323.339968-.2419582.24362495-.3640501.58162356-.3336354.92363505v2.91095802h-.9836424z"/><path d="m31.4787916 6.00833511c0-.89717366.6680183-1.41439198 1.8537863-1.48789923l1.3500828-.07782405v-.43020725c0-.52641641-.3480554-.82366641-1.0204015-.82366641-.5491073 0-.9295939.20159427-1.0387756.55397748h-.9522958c.1005259-.85609771.9058183-1.40520496 2.0364641-1.40520496 1.2495569 0 1.9537809.62206107 1.9537809 1.67489389v3.40546336h-.946374v-.70043855h-.0777687c-.3216027.51151388-.893517.81046503-1.4970863.78255725-.4231201.04401786-.8451148-.09301092-1.1616575-.3772097-.3165426-.28419879-.4980883-.68904152-.4997547-1.11444183zm3.2038802-.42589045v-.4166813l-1.2171367.07782404c-.6863924.04593512-.9976996.27941833-.9976996.7188126 0 .4485813.3891313.70962557.9242366.70962557.3167727.03206907.6329977-.06579319.8762836-.27118377s.3928004-.50072209.4143161-.81838607z"/><path d="m37.2017645 2.43370878h.9468943v.76421641h.0735072c.2174712-.54426108.7609797-.8863019 1.345755-.84691069.1473296-.00198074.2944489.01178944.4388519.04107596v.97072519c-.1805163-.03857252-.3645184-.05849381-.5491073-.05945-.3280608-.02946075-.6533081.08098636-.8955918.30412406s-.3790718.53821449-.3766559.86758663v2.94282481h-.9836534z"/><path d="m40.9115176 7.91671221h1.0063442c.0832367.36157023.4993867.59505344 1.1630771.59505344.8193386 0 1.304679-.3891313 1.304679-1.0479626v-.95662366h-.0735072c-.3145895.54600974-.9088353.86944215-1.5381622.8371813-1.2722477 0-2.0591661-.98364237-2.0591661-2.47586947 0-1.51973282.795563-2.51747672 2.0688955-2.51747672.6449289-.02245822 1.2485878.31647714 1.5651809.87879962h.077824v-.79610534h.9425664v5.02519084c0 1.13984389-.8928458 1.86298435-2.3023786 1.86298435-1.2452179 0-2.0505103-.55826107-2.155353-1.40517176zm3.4924744-3.05308015c0-.99286259-.5134439-1.62895878-1.3511565-1.62895878-.8463683 0-1.3219794.63612939-1.3219794 1.62895878 0 .99337176.4756111 1.62950115 1.3219794 1.62950115.8431252 0 1.3511565-.63125916 1.3511565-1.62954542z"/><path d="m51.1511408 6.07211298c-.2758242.94015286-1.1856252 1.54759611-2.1596919 1.44195305-.6646071.01754462-1.3033314-.25793415-1.7467033-.7533448-.4433719-.49541064-.646568-1.16066901-.5556754-1.81926512-.088475-.66042467.1139614-1.32674587.5548639-1.82633925s1.0768864-.78329908 1.7431869-.77761724c1.3868309 0 2.2234698.94748091 2.2234698 2.51259542v.34319618h-3.5194931v.05512214c-.0311451.36984977.0951695.73567881.3478791 1.00751833.2527096.27183953.6083659.42446616.9795018.42034426.481236.05777274.9496864-.1809367 1.185779-.60424045zm-3.4600763-1.60625687h2.5174767c.0250738-.33825906-.0938643-.6713776-.3275041-.91726437-.2336399-.24588677-.5602529-.38167416-.8993508-.37389976-.3436902-.00431498-.6745574.13035075-.917548.37344972s-.3775088.57402621-.3730406.91771441z"/><path d="m52.5314855 2.43370878h.9469496v.76421641h.0735073c.2174711-.54426108.7609796-.8863019 1.3457549-.84691069.1473296-.00198074.294449.01178944.4388519.04107596v.97072519c-.1805163-.03857252-.3645183-.05849381-.5491072-.05945-.3280718-.02948063-.6533371.08095754-.895636.30409751-.2422988.22313998-.3790959.5382284-.3766781.86761318v2.94282481h-.9836424z"/><path d="m58.8808584 4.92362443c0-1.57491031.8096202-2.57260993 2.0688954-2.57260993.6358713-.0292987 1.2314236.31142112 1.5284328.87442748h.0735073v-2.73740076h.9836424v6.92982672h-.9425665v-.78746069h-.0778461c-.3194603.55833521-.92235.89329572-1.565181.86960153-1.2679198.00001107-2.0688843-.99768855-2.0688843-2.57638435zm1.0161069 0c0 1.05714962.4983129 1.69327901 1.3317087 1.69327901.8290458 0 1.3414271-.64530535 1.3414271-1.68895115 0-1.03877557-.5177606-1.69327901-1.3414271-1.69327901-.8280274 0-1.3317419.64047939-1.3317419 1.68895115z"/><path d="m64.8648756 6.00833511c0-.89717366.6680183-1.41439198 1.8537862-1.48789923l1.3500829-.07782405v-.43020725c0-.52641641-.3480554-.82366641-1.0203905-.82366641-.5491073 0-.9295939.20159427-1.0387756.55397748h-.9522958c.100526-.85609771.9058183-1.40520496 2.0364641-1.40520496 1.2495569 0 1.9543233.62206107 1.9543233 1.67489389v3.40546336h-.9468942v-.70043855h-.0778241c-.3216027.51151388-.893517.81046503-1.4970863.78255725-.4231165.04401117-.8451052-.09302064-1.1616428-.37721867-.3165375-.28419802-.4980802-.68903682-.4997472-1.11443286zm3.2038691-.42589045v-.4166813l-1.2171035.07781298c-.6863923.04593511-.9976996.27941832-.9976996.71881259 0 .4485813.3891313.70962557.9242366.70962557.3167655.03205952.6329801-.06580564.8762583-.27119285.2432781-.20538721.3927892-.5007103.4143082-.81836592z"/><path d="m70.5884351 2.43370878h.9468943v.79177748h.0735072c.255615-.58295762.8529131-.93955852 1.4873569-.88798664.4912476-.0369343.9726355.15151936 1.308244.51215114.3356085.36063179.4890178.85430646.4169129 1.34163512v3.22652672h-.9836424v-2.97951756c0-.80096451-.3480553-1.19929389-1.0755236-1.19929389-.3332058-.0155193-.6565731.11525017-.8853251.35802468s-.3400743.57334132-.3047818.905036v2.91580611h-.9836424z"/><path d="m78.1646187 2.33751069c1.1209275 0 1.8537863.52154618 1.9499954 1.4003458h-.9436511c-.0907634-.36589809-.4485813-.59937023-1.0063443-.59937023-.5491072 0-.9662977.26050191-.9662977.64963321 0 .29774809.2518572.48534045.7923198.60909961l.827939.19186489c.947979.21996832 1.3922324.62747366 1.3922324 1.35981221 0 .93824962-.8744275 1.56518092-2.0645675 1.56518092-1.1857791 0-1.9586401-.53560344-2.0461936-1.41871985h.9847271c.1746443.43260499.6225562.6896025 1.0841684.62206107.6128851 0 1.0485049-.27450382 1.0485049-.67287748 0-.29725-.2334832-.48965725-.7328698-.60855725l-.8690702-.20159428c-.9479791-.22429618-1.386831-.6496332-1.386831-1.39115878-.000011-.88364771.8096092-1.50571984 1.9359382-1.50571984z"/></g><g transform="translate(38.740458 18.816794)"><path d="m.21943702 1.18090878h2.05809237v13.74562362h-2.05809237z"/><path d="m4.75717328 6.21047176 1.12417061-5.02956298h1.99971603l-1.36197061 5.02956298z"/><path d="m15.6583286 11.2113889h-5.2392484l-1.25820157 3.7151546h-2.21915306l4.96254203-13.74562365h2.3056106l4.962542 13.74562365h-2.2569637zm-4.6966275-1.71435379h4.1529771l-2.0472782-6.02995229h-.0572916z"/><path d="m29.8887504 9.91645038c0 3.11415722-1.6667916 5.11494692-4.1821099 5.11494692-1.3001461.0680113-2.5248127-.6129729-3.1530638-1.7532824h-.0475954v4.9636267h-2.0570076v-13.33703358h1.9910713v1.66678053h.0378329c.6561618-1.1331607 1.882149-1.81385167 3.1908965-1.77164542 2.543455.00002214 4.219976 2.01054122 4.219976 5.11660725zm-2.1142993 0c0-2.02944656-1.0485049-3.36330267-2.6482755-3.36330267-1.5716672 0-2.6288168 1.36197061-2.6288168 3.36330267 0 2.01917482 1.0571496 3.37141602 2.6288168 3.37141602 1.5997817 0 2.6482755-1.3241599 2.6482755-3.37141602z"/><path d="m40.9180038 9.91645038c0 3.11415722-1.6667916 5.11494692-4.1821099 5.11494692-1.3001461.0680113-2.5248126-.6129729-3.1530637-1.7532824h-.0475955v4.9636267h-2.0564431v-13.33703358h1.990529v1.66678053h.037855c.6561618-1.1331607 1.882149-1.81385167 3.1908965-1.77164542 2.5434107.00002214 4.2199317 2.01054122 4.2199317 5.11660725zm-2.1142992 0c0-2.02944656-1.048505-3.36330267-2.6482756-3.36330267-1.5716672 0-2.6288168 1.36197061-2.6288168 3.36330267 0 2.01917482 1.0571496 3.37141602 2.6288168 3.37141602 1.5997706 0 2.6482756-1.3241599 2.6482756-3.37141602z"/><path d="m48.2077737 11.0968057c.152416 1.3630554 1.4765648 2.2580153 3.286021 2.2580153 1.7338126 0 2.9812-.8950042 2.9812-2.1240286 0-1.066879-.7523287-1.70568706-2.5336924-2.14347637l-1.7813638-.42966488c-2.523974-.60959771-3.69574-1.7899752-3.69574-3.70538092 0-2.37155802 2.066737-4.00051679 5.0014484-4.00051679 2.9044275 0 4.895521 1.62895877 4.962542 4.00051679h-2.0764332c-.1243015-1.3717-1.2582015-2.19968321-2.9152637-2.19968321s-2.7909512.83772367-2.7909512 2.05700764c0 .97175458.7242252 1.54356374 2.4958596 1.98129771l1.5143756.37184198c2.8201393.66693359 3.9918721 1.80028015 3.9918721 3.81081035 0 2.5715251-2.048363 4.1821099-5.3062805 4.1821099-3.048221 0-5.1063023-1.5727519-5.2392596-4.0588931z"/><path d="m61.0881679 2.53315v2.37155802h1.9056764v1.62895877h-1.9056764v5.52516411c0 .8582561.3815714 1.2582015 1.219284 1.2582015.2262348-.0039449.4521035-.0198322.676663-.0475954v1.6192294c-.3766366.0703743-.759456.1022466-1.1425447.0951244-2.0288931 0-2.8201393-.762058-2.8201393-2.7055671v-5.74455691h-1.4571393v-1.62895877h1.457095v-2.37155802z"/><path d="m64.0963424 9.91645038c0-3.15360611 1.8570294-5.13494809 4.7528454-5.13494809 2.9055343 0 4.7539191 1.98129771 4.7539191 5.13494809 0 3.16171942-1.8386554 5.13440572-4.7539191 5.13440572-2.9141901 0-4.7528454-1.9727084-4.7528454-5.13440572zm7.4108393 0c0-2.16347748-.9912134-3.44005305-2.658005-3.44005305s-2.6569202 1.28630496-2.6569202 3.44005305c0 2.17157982.9901286 3.43843702 2.6569202 3.43843702s2.658005-1.2668683 2.658005-3.43843702z"/><path d="m75.2990645 4.90470802h1.9618943v1.70568702h.0475954c.2735918-1.0980281 1.2796887-1.85372919 2.4104645-1.81055191.2370518-.00082768.4734496.02491647.7047664.07675038v1.92401718c-.2992634-.09144595-.6114466-.13343178-.9242366-.12430153-.6048305-.02449506-1.1901508.21660572-1.6022561.65998943s-.6098185 1.0447479-.5412203 1.64617469v5.94402592h-2.0570076z"/><path d="m89.9067298 11.9831653c-.2767176 1.8191965-2.048363 3.0676687-4.3150672 3.0676687-2.9152637 0-4.7247309-1.9532386-4.7247309-5.08684354 0-3.14387672 1.8191965-5.18251031 4.6382622-5.18251031 2.7725771 0 4.5161191 1.90459161 4.5161191 4.94362558v.70476637h-7.0779149v.1243016c-.066083.7460655.1915346 1.4845669.7073232 2.0276533s1.2400351.8384137 1.9885146.81086c.9982223.0935301 1.9393507-.4796758 2.3142664-1.4095328zm-6.9536117-2.99095156h5.0101136c.0374391-.67046863-.2065372-1.32615753-.6731419-1.80907566-.4666048-.48291812-1.1135258-.74927415-1.7848848-.73488846-.6766633-.00399677-1.3268859.26248251-1.8061286.74020164s-.7477911 1.12708993-.7459583 1.80376248z"/></g></g></g></svg>