<svg height="44" viewBox="0 0 144 44" width="144" xmlns="http://www.w3.org/2000/svg" xmlns:xlink="http://www.w3.org/1999/xlink"><linearGradient id="a" x1="61.231376%" x2="26.323984%" y1="4.8388%" y2="71.9684%"><stop offset="0" stop-color="#00a0ff"/><stop offset=".00657445" stop-color="#00a1ff"/><stop offset=".2601" stop-color="#00beff"/><stop offset=".5122" stop-color="#00d2ff"/><stop offset=".7604" stop-color="#00dfff"/><stop offset="1" stop-color="#00e3ff"/></linearGradient><linearGradient id="b" x1="107.728079%" x2="-130.665025%" y1="49.428235%" y2="49.428235%"><stop offset="0" stop-color="#ffe000"/><stop offset=".4087" stop-color="#ffbd00"/><stop offset=".7754" stop-color="#ffa500"/><stop offset="1" stop-color="#ff9c00"/></linearGradient><linearGradient id="c" x1="86.389222%" x2="-49.888024%" y1="30.829755%" y2="136.004321%"><stop offset="0" stop-color="#ff3a44"/><stop offset="1" stop-color="#c31162"/></linearGradient><linearGradient id="d" x1="-18.579042%" x2="42.27485%" y1="-11.68238%" y2="35.064338%"><stop offset="0" stop-color="#32a071"/><stop offset=".0685" stop-color="#2da771"/><stop offset=".4762" stop-color="#15cf74"/><stop offset=".8009" stop-color="#06e775"/><stop offset="1" stop-color="#00f076"/></linearGradient><g fill="none" fill-rule="evenodd"><rect fill="#000" height="44.274809" rx="4.427481" width="143.89313"/><g fill-rule="nonzero" transform="translate(7.748092 6.641221)"><path d="m65.4160305 17.4885496c-2.6564885 0-4.759542 1.9923664-4.759542 4.759542 0 2.6564886 2.1030535 4.759542 4.759542 4.759542 2.6564886 0 4.759542-1.9923664 4.759542-4.759542 0-2.8778626-2.1030534-4.759542-4.759542-4.759542zm0 7.5267176c-1.4389313 0-2.6564885-1.2175573-2.6564885-2.8778626 0-1.6603054 1.2175572-2.8778626 2.6564885-2.8778626s2.6564886 1.1068702 2.6564886 2.8778626c0 1.6603053-1.2175573 2.8778626-2.6564886 2.8778626zm-10.2938931-7.5267176c-2.6564885 0-4.759542 1.9923664-4.759542 4.759542 0 2.6564886 2.1030535 4.759542 4.759542 4.759542 2.6564886 0 4.759542-1.9923664 4.759542-4.759542 0-2.8778626-2.1030534-4.759542-4.759542-4.759542zm0 7.5267176c-1.4389313 0-2.6564885-1.2175573-2.6564885-2.8778626 0-1.6603054 1.2175572-2.8778626 2.6564885-2.8778626s2.6564886 1.1068702 2.6564886 2.8778626c0 1.6603053-1.2175573 2.8778626-2.6564886 2.8778626zm-12.2862595-6.0877863v1.9923664h4.7595419c-.110687 1.1068703-.5534351 1.9923664-1.1068702 2.5458016-.6641221.6641221-1.7709923 1.4389313-3.6526717 1.4389313-2.9885497 0-5.2022901-2.3244275-5.2022901-5.3129771 0-2.9885497 2.3244275-5.3129771 5.2022901-5.3129771 1.5496183 0 2.7671755.6641221 3.6526717 1.4389313l1.4389313-1.4389313c-1.2175572-1.1068703-2.7671756-1.9923665-4.980916-1.9923665-3.9847328 0-7.4160305 3.3206107-7.4160305 7.3053436 0 3.9847328 3.4312977 7.3053435 7.4160305 7.3053435 2.2137404 0 3.7633588-.6641222 5.091603-2.1030535 1.3282443-1.3282442 1.7709924-3.2099236 1.7709924-4.6488549 0-.4427481 0-.8854962-.110687-1.2175573zm50.2519084 1.5496183c-.4427481-1.1068702-1.5496184-2.9885496-3.9847329-2.9885496s-4.4274809 1.8816794-4.4274809 4.759542c0 2.6564886 1.9923664 4.759542 4.648855 4.759542 2.1030534 0 3.4312977-1.3282443 3.8740458-2.1030534l-1.5496183-1.1068703c-.5534352.7748092-1.2175573 1.3282443-2.3244275 1.3282443s-1.7709924-.4427481-2.3244275-1.4389313l6.3091603-2.6564885zm-6.4198474 1.5496184c0-1.7709924 1.4389313-2.7671756 2.4351145-2.7671756.7748092 0 1.5496184.4427481 1.7709924.9961832zm-5.20229 4.5381679h2.1030534v-13.8358779h-2.1030534zm-3.3206107-8.0801527c-.5534351-.5534351-1.4389313-1.1068702-2.5458016-1.1068702-2.3244274 0-4.5381679 2.1030534-4.5381679 4.759542 0 2.6564885 2.1030534 4.6488549 4.5381679 4.6488549 1.1068703 0 1.9923665-.5534351 2.4351145-1.1068702h.1106871v.6641222c0 1.7709923-.9961832 2.7671755-2.5458016 2.7671755-1.2175572 0-2.1030534-.8854962-2.3244274-1.6603053l-1.7709924.7748091c.5534351 1.2175573 1.8816794 2.7671756 4.2061069 2.7671756 2.4351145 0 4.4274809-1.4389313 4.4274809-4.870229v-8.4122137h-1.9923664zm-2.4351145 6.5305344c-1.4389313 0-2.6564886-1.2175573-2.6564886-2.8778626 0-1.6603054 1.2175573-2.8778626 2.6564886-2.8778626s2.5458015 1.2175572 2.5458015 2.8778626c0 1.6603053-1.1068702 2.8778626-2.5458015 2.8778626zm27.0076333-12.2862596h-4.9809158v13.8358779h2.1030535v-5.2022901h2.8778623c2.324428 0 4.538168-1.6603053 4.538168-4.3167939 0-2.6564885-2.21374-4.3167939-4.538168-4.3167939zm.110687 6.6412214h-2.9885493v-4.759542h2.9885493c1.549619 0 2.435115 1.3282443 2.435115 2.3244275-.110687 1.2175573-.996183 2.4351145-2.435115 2.4351145zm12.729008-1.9923664c-1.549618 0-3.099237.6641221-3.652672 2.1030534l1.88168.7748092c.442748-.7748092 1.10687-.9961832 1.881679-.9961832 1.10687 0 2.103053.6641221 2.21374 1.7709924v.110687c-.332061-.2213741-1.217557-.5534351-2.103053-.5534351-1.992366 0-3.984733 1.1068702-3.984733 3.0992366 0 1.8816794 1.660305 3.0992366 3.431298 3.0992366 1.438931 0 2.103053-.6641221 2.656488-1.3282442h.110687v1.1068702h1.992367v-5.3129771c-.221374-2.4351145-2.103054-3.8740458-4.427481-3.8740458zm-.221374 7.6374046c-.664122 0-1.660305-.3320611-1.660305-1.2175573 0-1.1068702 1.217557-1.4389313 2.21374-1.4389313.885496 0 1.328244.2213741 1.881679.4427481-.221374 1.3282443-1.328244 2.2137405-2.435114 2.2137405zm11.622137-7.3053435-2.324427 5.9770992h-.110687l-2.435115-5.9770992h-2.21374l3.652672 8.4122137-2.103054 4.648855h2.103054l5.645038-13.0610687zm-18.59542 8.8549618h2.103054v-13.8358779h-2.103054z" fill="#fff"/><g transform="translate(0 1.10687)"><path d="m1.54961832.55343512c-.33206107.33206106-.55343511.88549618-.55343511 1.54961832v24.46183206c0 .6641221.22137404 1.2175572.55343511 1.5496183l.11068702.110687 13.72519086-13.7251908v-.110687-.110687z" fill="url(#a)"/><path d="m19.9236641 19.148855-4.5381679-4.538168v-.221374-.110687l4.5381679-4.53816798.110687.11068702 5.4236642 3.09923666c1.5496183.8854962 1.5496183 2.3244275 0 3.2099236z" fill="url(#b)"/><path d="m20.0343511 19.0381679-4.6488549-4.6488549-13.83587788 13.8358778c.55343512.5534352 1.32824428.5534352 2.32442748.1106871z" fill="url(#c)"/><path d="m20.0343511 9.74045802-16.1603053-9.1870229c-.9961832-.55343512-1.77099236-.4427481-2.32442748.11068702l13.83587788 13.72519086z" fill="url(#d)"/><g fill="#000" transform="translate(0 18.816794)"><path d="m19.9236641.11068702-16.0496183 9.07633588c-.88549618.55343512-1.66030534.44274809-2.21374046 0l-.11068702.11068702.11068702.11068703c.55343512.44274809 1.32824428.55343511 2.21374046 0z" opacity=".2"/><path d="m1.54961832 9.1870229c-.33206107-.33206107-.44274809-.88549618-.44274809-1.54961832v.11068702c0 .66412214.22137404 1.21755725.55343511 1.54961832v-.11068702z" opacity=".12"/></g><path d="m25.4580153 15.8282443-5.5343512 3.0992366.110687.110687 5.4236642-3.0992366c.7748091-.4427481 1.1068702-.9961832 1.1068702-1.5496183 0 .5534351-.4427481.9961832-1.1068702 1.4389313z" fill="#000" opacity=".12"/><path d="m3.8740458.66412214 21.5839695 12.28625956c.6641221.4427481 1.1068702.8854962 1.1068702 1.4389313 0-.5534351-.3320611-1.1068703-1.1068702-1.5496183l-21.5839695-12.28625958c-1.54961832-.88549619-2.76717557-.11068703-2.76717557 1.66030534v.11068702c0-1.77099236 1.21755725-2.54580153 2.76717557-1.66030534z" fill="#fff" opacity=".25"/></g><g fill="#fff" stroke="#fff" stroke-width=".5" transform="translate(35.419847)"><path d="m.33206107 7.7480916v-6.64122137h1.99236641c.99618321 0 1.88167939.33206107 2.4351145.88549618.66412214.66412214.88549619 1.4389313.88549619 2.43511451 0 .9961832-.33206107 1.77099236-.88549619 2.4351145-.55343511.55343511-1.43893129.88549618-2.4351145.88549618zm.77480916-.77480916h1.21755725c.77480916 0 1.32824428-.22137404 1.77099237-.66412213.44274809-.4427481.66412213-1.10687023.66412213-1.88167939s-.22137404-1.4389313-.66412213-1.88167939-1.10687023-.66412214-1.77099237-.66412214h-1.21755725z"/><path d="m6.86259542 7.7480916v-6.64122137h.88549618v6.64122137z"/><path d="m11.1793893 7.85877863c-.4427481 0-.9961832-.11068703-1.43893128-.4427481-.4427481-.33206106-.77480917-.77480916-.88549619-1.32824427l.77480916-.33206107c.11068703.33206107.33206107.66412214.55343511.88549618.3320611.22137405.6641221.33206107.9961832.33206107s.6641222-.11068702.9961832-.33206107c.2213741-.22137404.4427481-.44274809.4427481-.77480916 0-.33206106-.110687-.66412213-.4427481-.88549618-.221374-.22137405-.6641221-.44274809-1.2175572-.55343511-.5534351-.22137405-.99618324-.4427481-1.32824431-.66412214-.33206107-.33206107-.44274809-.66412214-.44274809-1.10687023s.22137405-.88549618.55343512-1.21755725c.33206108-.33206107.88549618-.55343512 1.43893128-.55343512s.9961832.11068703 1.3282443.44274809c.3320611.33206107.5534351.55343512.6641221.88549619l-.7748091.33206107c-.1106871-.22137405-.2213741-.44274809-.4427481-.55343512-.2213741-.22137404-.5534351-.22137404-.8854962-.22137404s-.5534351.11068702-.8854962.22137404c-.110687.22137405-.22137404.44274809-.22137404.77480916 0 .22137405.11068704.44274809.33206104.66412214.2213741.22137405.5534351.33206107.9961832.44274809.3320611.11068702.5534352.22137405.7748092.33206107s.4427481.22137405.6641221.44274809c.2213741.11068702.4427481.33206107.5534351.66412214.1106871.22137405.2213741.55343511.2213741.88549618s-.110687.66412214-.2213741.88549619c-.110687.22137404-.332061.44274809-.5534351.55343511-.332061 0-.5534351.11068702-.7748091.11068702-.3320611.11068703-.5534351.11068703-.7748092.11068703z"/><path d="m15.4961832 7.7480916h-.8854962v-6.64122137h2.2137405c.5534351 0 .9961832.22137404 1.4389313.55343511s.6641221.88549619.6641221 1.4389313c0 .55343512-.221374.99618321-.6641221 1.4389313-.4427481.33206107-.8854962.55343511-1.4389313.55343511h-1.3282443zm0-3.54198473h1.4389313c.3320611 0 .6641221-.11068702.8854962-.33206107.221374-.22137404.3320611-.55343511.3320611-.77480916 0-.33206107-.1106871-.55343511-.3320611-.77480916-.2213741-.22137404-.5534351-.33206107-.8854962-.33206107h-1.4389313z"/><path d="m25.4580153 6.86259542c-.6641222.66412214-1.4389313.99618321-2.4351145.99618321s-1.7709924-.33206107-2.4351145-.99618321c-.6641222-.66412214-.9961832-1.4389313-.9961832-2.4351145 0-.99618321.332061-1.77099237.9961832-2.43511451.6641221-.66412214 1.4389313-.9961832 2.4351145-.9961832s1.7709923.33206106 2.4351145.9961832c.6641221.66412214.9961832 1.4389313.9961832 2.43511451 0 .9961832-.3320611 1.77099236-.9961832 2.4351145zm-4.2061069-.55343511c.4427481.44274809 1.1068702.77480916 1.7709924.77480916.6641221 0 1.3282442-.22137405 1.7709923-.77480916.4427481-.4427481.7748092-1.10687023.7748092-1.88167939s-.2213741-1.4389313-.7748092-1.88167939c-.4427481-.44274809-1.1068702-.77480916-1.7709923-.77480916-.6641222 0-1.3282443.22137404-1.7709924.77480916-.4427481.44274809-.7748092 1.10687023-.7748092 1.88167939s.2213741 1.43893129.7748092 1.88167939z"/><path d="m27.5610687 7.7480916v-6.64122137h.9961832l3.2099237 5.20229008v-1.32824428-3.8740458h.8854962v6.64122137h-.8854962l-3.4312977-5.42366412v1.32824428 4.09541984z"/><path d="m34.2022901 7.7480916v-6.64122137h.8854962v6.64122137z"/><path d="m36.6374046 7.7480916v-6.64122137h2.4351145c.5534351 0 .9961832.22137404 1.3282443.55343511.332061.33206107.5534351.77480916.5534351 1.32824428 0 .33206107-.110687.55343511-.2213741.88549618-.110687.22137405-.332061.44274809-.6641221.55343512.3320611.11068702.5534351.33206106.7748092.55343511.221374.22137405.332061.55343512.332061.99618321 0 .55343511-.221374.9961832-.5534351 1.32824427-.4427481.33206107-.8854962.55343512-1.4389313.55343512h-2.5458015zm.8854962-3.76335878h1.5496183c.3320611 0 .5534351-.11068702.7748091-.33206106.2213741-.22137405.3320611-.4427481.3320611-.66412214 0-.22137405-.221374-.55343512-.3320611-.77480916-.221374-.22137405-.442748-.33206107-.7748091-.33206107h-1.5496183zm0 2.98854962h1.7709923c.3320611 0 .5534351-.11068702.7748092-.33206107.221374-.22137404.3320611-.44274809.3320611-.77480916 0-.22137404-.1106871-.55343511-.3320611-.77480916-.2213741-.22137404-.4427481-.33206107-.7748092-.33206107h-1.6603053v2.21374046z"/><path d="m42.2824427 7.7480916v-6.64122137h.8854962v5.86641221h2.8778626v.77480916z"/><path d="m51.0267176 1.88167939h-2.9885497v2.10305343h2.7671756v.77480916h-2.7671756v2.10305344h2.9885497v.88549618h-3.8740458v-6.64122137h3.8740458z"/><path d="m56.1183206 7.85877863c-.4427481 0-.9961832-.11068703-1.4389313-.4427481-.4427481-.33206106-.7748091-.77480916-.8854962-1.32824427l.7748092-.33206107c.110687.33206107.3320611.66412214.5534351.88549618.3320611.22137405.6641221.33206107.9961832.33206107s.6641221-.11068702.9961832-.33206107c.2213741-.22137404.4427481-.44274809.4427481-.77480916 0-.33206106-.110687-.66412213-.4427481-.88549618-.221374-.22137405-.6641221-.44274809-1.2175572-.55343511-.5534351-.22137405-.9961832-.4427481-1.3282443-.66412214-.3320611-.33206107-.4427481-.66412214-.4427481-1.10687023s.221374-.88549618.5534351-1.21755725.8854962-.55343512 1.4389313-.55343512.9961832.11068703 1.3282443.44274809c.3320611.33206107.5534351.55343512.6641221.88549619l-.7748091.33206107c-.1106871-.22137405-.2213741-.44274809-.4427481-.55343512-.2213741-.22137404-.5534351-.22137404-.8854962-.22137404s-.5534351.11068702-.8854962.22137404c-.221374.22137405-.3320611.44274809-.3320611.66412214s.1106871.44274809.3320611.66412214c.2213741.22137404.5534351.33206107.9961832.44274809.3320611.11068702.5534351.22137404.7748092.33206107.221374.11068702.4427481.22137404.6641221.44274809.2213741.11068702.4427481.33206107.5534351.66412214.110687.22137404.2213741.55343511.2213741.88549618s-.1106871.66412214-.2213741.88549618c-.110687.22137405-.332061.44274809-.5534351.55343512-.221374.11068702-.4427481.22137404-.6641221.33206107-.2213741 0-.4427481 0-.7748092 0z"/><path d="m61.8740458 7.85877863c-.7748092 0-1.3282443-.22137405-1.7709924-.77480916-.4427481-.4427481-.6641221-1.10687023-.6641221-1.88167939v-4.09541985h.8854962v4.20610687c0 .55343511.110687.99618321.4427481 1.32824427.221374.33206107.6641221.4427481 1.2175572.4427481s.8854962-.11068703 1.2175573-.4427481c.221374-.33206106.4427481-.77480916.4427481-1.32824427v-4.20610687h.8854962v4.20610687c0 .77480916-.2213741 1.4389313-.6641222 1.88167939-.5534351.44274809-1.2175572.66412214-1.9923664.66412214z"/><path d="m65.7480916 7.7480916v-6.64122137h2.2137405c.5534351 0 .9961832.22137404 1.4389313.55343511s.6641221.88549619.6641221 1.4389313c0 .44274809-.110687.88549618-.4427481 1.21755725s-.6641221.55343512-1.1068702.66412214l1.8816794 2.65648855h-.9961832l-1.7709924-2.65648855h-.9961832v2.76717557zm.8854962-3.54198473h1.3282443c.332061 0 .6641221-.11068702.8854961-.33206107.2213741-.22137404.3320611-.55343511.3320611-.88549618s-.110687-.55343512-.3320611-.77480916c-.221374-.22137405-.5534351-.33206107-.8854961-.33206107h-1.4389313v2.32442748z"/></g></g></g></svg>